<?xml version="1.0" encoding="utf-8"?>
<!-- Generator: Adobe Illustrator 26.1.0, SVG Export Plug-In . SVG Version: 6.00 Build 0)  -->
<svg version="1.1" id="Laag_1" xmlns="http://www.w3.org/2000/svg" xmlns:xlink="http://www.w3.org/1999/xlink" x="0px" y="0px"
	 viewBox="0 0 817.2 288.7" style="enable-background:new 0 0 817.2 288.7;" xml:space="preserve">
<style type="text/css">
	.st0{fill:#EC6B42;}
	.st1{fill:#4C384D;}
	.st2{fill:#4C394D;}
</style>
<g>
	<path class="st0" d="M550.2,144.1c10.1,0,13.4-5,13.4-12.4c0-11.8-7-34.1-16.1-57.8C535.9,44.1,516.9,1,497.5,1
		c-19.6,0-38.2,43.2-50,72.9C438,97.6,431,120.5,431,132.1c0,7.2,3.7,13.4,13.6,13.4c9.1,0,12.6-6,15.1-17.6
		c5.6-27.3,25.2-80.3,38-92.9c11.4,9.3,30.8,60.9,34.7,82.2H501c-9.3,0-15.5,5-15.5,13.4c0,8.5,6,13.4,15.5,13.4H550.2z"/>
	<path class="st1" d="M726.7,1.3c-9.3,0-15,3.4-20.1,11.6l-39.9,66.7l-39.9-66.7C621.7,4.6,616,1.3,606.7,1.3
		C594,1.3,586.9,11,586.9,23v105.8c0,10.3,5.9,16.5,15.4,16.5c9.7,0,15.4-6.1,15.4-16.5V54.3h0.4l33.6,56c3.8,6.3,8.5,8.9,14.6,8.9
		s10.8-2.5,14.8-9.1l32.7-54.7h0.4v73.1c0,10.6,5.9,16.9,15.8,16.9c9.7,0,15.6-6.3,15.6-16.9v-106C745.7,10.8,738.7,1.3,726.7,1.3
		 M325.5,115.3V86.8h59.3c9.5,0,14.8-5.3,14.8-13.9c0-8.7-5.3-13.9-14.8-13.9h-59.3V31.2h74.6c9.5,0,15.2-5.5,15.2-14.4
		c0-8.9-5.7-14.4-15.2-14.4h-89.1c-10.6,0-16.9,6.3-16.9,16.9v107.7c0,10.6,6.3,16.9,16.9,16.9h89.1c9.5,0,15.2-5.5,15.2-14.4
		s-5.7-14.4-15.2-14.4H325.5z M151.9,2.5c-9.5,0-15.2,5.5-15.2,14.4c0,8.9,5.7,14.4,15.2,14.4h37.4v97.1c0,10.6,5.9,16.9,15.8,16.9
		c9.7,0,15.6-6.3,15.6-16.9V31.2h37.4c9.5,0,15.2-5.5,15.2-14.4c0-8.9-5.7-14.4-15.2-14.4H151.9z M34,45.6c0-10.6,11-17.3,27.7-17.3
		c12.7,0,23.9,3.6,33.6,10.8c3.2,2.3,6.1,3.4,9.5,3.4c9.1,0,14.8-6.1,14.8-14.6c0-5.5-2.1-9.7-5.5-12.5C102,5.3,85.1,0,64,0
		C26,0,2.1,18.2,2.1,46.9c0,27.5,16.3,40.3,58.9,40.8c25.3,0.2,32.7,4.2,32.7,13.3c0,11-10.4,17.3-28.3,17.3
		c-16.3,0-30.6-4.8-40.8-13.7c-3.4-2.7-6.5-3.8-9.9-3.8c-9.1,0-14.8,6.1-14.8,14.6c0,4.9,1.5,8.7,4.2,11.4
		c12.2,13.1,32.3,19.8,58.9,19.8c40.1,0,62.5-16.7,62.5-46.9c0-28.3-16.9-41.8-60-41.8C41.6,57.9,34,54.1,34,45.6"/>
	<path class="st2" d="M675.2,207.2c-2.6,0-4.3,1.6-4.3,4c0,2.5,1.7,4.1,4.3,4.1H704v68.6c0,3,1.6,4.8,4.3,4.8c2.8,0,4.5-1.8,4.5-4.8
		v-68.6h28.6c2.6,0,4.3-1.6,4.3-4.1c0-2.4-1.7-4-4.3-4H675.2z M640.5,270.5c0-2.4-1.8-4.2-4.2-4.2c-1.7,0-2.9,0.7-3.7,1.9
		c-6.2,8.4-15.2,13.1-26.9,13.1c-19.4,0-32.7-13.7-32.7-33.7s13.3-33.7,32.7-33.7c11.2,0,20.2,4.5,25.9,11.9c1,1.3,2.2,1.9,3.7,1.9
		c2.5,0,4.2-1.8,4.2-4.2c0-1.3-0.5-2.4-1.2-3.3c-7.4-9.2-18.6-14.5-32.7-14.5c-24.7,0-41.6,17-41.6,41.8s16.9,41.8,41.6,41.8
		c15.3,0,27.4-6.5,34.1-16.3C640.3,272.4,640.5,271.5,640.5,270.5 M471.4,279.9v-28.6h44.2c2.7,0,4.3-1.5,4.3-4.1c0-2.5-1.7-4-4.3-4
		h-44.2v-28h53.1c2.7,0,4.3-1.6,4.3-4.1c0-2.4-1.7-4-4.3-4h-57.2c-3,0-4.7,1.8-4.7,4.8v71.1c0,3,1.7,4.8,4.7,4.8h57.2
		c2.7,0,4.3-1.6,4.3-4c0-2.5-1.7-4.1-4.3-4.1H471.4z M415.4,206.5c-2.8,0-4.3,1.8-4.3,4.7v62.9h-0.2l-52.5-65.4
		c-1.4-1.7-3-2.2-4.7-2.2c-3.1,0-5.1,2.2-5.1,5.4V284c0,2.9,1.6,4.7,4.3,4.7c2.6,0,4.3-1.8,4.3-4.7v-62.9h0.2l52.4,65.4
		c1.4,1.7,3,2.2,4.7,2.2c3,0,5.2-2.1,5.2-5.3v-72.2C419.7,208.3,418,206.5,415.4,206.5 M301.3,206.5c-2.8,0-4.3,1.8-4.3,4.7v62.9
		h-0.2l-52.5-65.4c-1.4-1.7-3-2.2-4.7-2.2c-3.1,0-5.1,2.2-5.1,5.4V284c0,2.9,1.6,4.7,4.3,4.7c2.6,0,4.3-1.8,4.3-4.7v-62.9h0.2
		l52.4,65.4c1.4,1.7,3,2.2,4.7,2.2c3,0,5.2-2.1,5.2-5.3v-72.2C305.6,208.3,304,206.5,301.3,206.5 M120.3,247.6
		c0-20,13.3-33.7,32.7-33.7c19.4,0,32.8,13.7,32.8,33.7s-13.4,33.7-32.8,33.7C133.6,281.4,120.3,267.6,120.3,247.6 M111.4,247.6
		c0,24.8,16.9,41.8,41.6,41.8c24.8,0,41.7-17,41.7-41.8s-16.9-41.8-41.7-41.8C128.3,205.8,111.4,222.8,111.4,247.6 M76.4,270.5
		c0-2.4-1.8-4.2-4.2-4.2c-1.7,0-2.9,0.7-3.7,1.9c-6.1,8.4-15.2,13.1-26.9,13.1c-19.4,0-32.7-13.7-32.7-33.7s13.3-33.7,32.7-33.7
		c11.2,0,20.2,4.5,25.9,11.9c1,1.3,2.2,1.9,3.7,1.9c2.5,0,4.2-1.8,4.2-4.2c0-1.3-0.5-2.4-1.2-3.3c-7.4-9.2-18.6-14.5-32.7-14.5
		c-24.7,0-41.6,17-41.6,41.8s16.9,41.8,41.6,41.8c15.3,0,27.4-6.5,34.1-16.3C76.2,272.4,76.4,271.5,76.4,270.5"/>
	<path class="st2" d="M796.7,3.7c10,0,17.6,7.6,17.6,17.8c0,10.2-7.6,17.8-17.6,17.8c-10,0-17.6-7.7-17.6-17.8
		C779,11.3,786.6,3.7,796.7,3.7 M796.7,1c-11.8,0-20.6,8.8-20.6,20.6s8.8,20.6,20.6,20.6c11.8,0,20.6-8.8,20.6-20.6S808.5,1,796.7,1
		 M791.4,21.4v-7.5h7.5c2.7,0,4.2,1.4,4.2,3.7c0,2.4-1.5,3.7-4.2,3.7H791.4z M801.2,24.1V24c3.3-0.8,5-2.8,5-6.5
		c0-4.1-2.4-6.3-7-6.3H790c-1,0-1.6,0.6-1.6,1.7v18c0,1,0.5,1.5,1.5,1.5c1.1,0,1.5-0.6,1.5-1.5v-6.6h6.1l5.9,7.4
		c0.4,0.4,0.8,0.7,1.4,0.7c0.9,0,1.5-0.6,1.5-1.5c0-0.5-0.2-0.9-0.5-1.3L801.2,24.1z"/>
</g>
</svg>
